<svg xmlns="http://www.w3.org/2000/svg" viewBox="0 0 512 512" style="height: 512px; width: 512px;"><circle cx="256" cy="256" r="256" fill="rgba(132, 102, 73, 0)"></circle><g class="" transform="translate(4,-11)" style="touch-action: none;"><path fill="rgba(115, 115, 115, 1)" d="M384 64l.387 256H368l-96-128-16 128-96-128-16 128-96-128-16 128v160h448V64h-32v256h-32V64h-32zM64 352h48v32H64v-32zm80 0h48v32h-48v-32zm80 0h48v32h-48v-32zm80 0h48v32h-48v-32zM64 416h48v32H64v-32zm80 0h48v32h-48v-32zm80 0h48v32h-48v-32zm80 0h48v32h-48v-32z" transform="translate(51.2, 51.2) scale(0.8, 0.8) rotate(0, 256, 256)"></path></g></svg>