<?xml version="1.0" encoding="UTF-8" standalone="no"?>
<svg
   xmlns:dc="http://purl.org/dc/elements/1.1/"
   xmlns:cc="http://creativecommons.org/ns#"
   xmlns:rdf="http://www.w3.org/1999/02/22-rdf-syntax-ns#"
   xmlns:svg="http://www.w3.org/2000/svg"
   xmlns="http://www.w3.org/2000/svg"
   xmlns:sodipodi="http://sodipodi.sourceforge.net/DTD/sodipodi-0.dtd"
   xmlns:inkscape="http://www.inkscape.org/namespaces/inkscape"
   viewBox="0 0 512 512"
   style="height: 512px; width: 512px;"
   id="svg2"
   version="1.1"
   inkscape:version="0.91 r13725"
   sodipodi:docname="forest.svg">
  <metadata
     id="metadata14">
    <rdf:RDF>
      <cc:Work
         rdf:about="">
        <dc:format>image/svg+xml</dc:format>
        <dc:type
           rdf:resource="http://purl.org/dc/dcmitype/StillImage" />
      </cc:Work>
    </rdf:RDF>
  </metadata>
  <defs
     id="defs12" />
  <sodipodi:namedview
     pagecolor="#ffffff"
     bordercolor="#666666"
     borderopacity="1"
     objecttolerance="10"
     gridtolerance="10"
     guidetolerance="10"
     inkscape:pageopacity="0"
     inkscape:pageshadow="2"
     inkscape:window-width="1855"
     inkscape:window-height="1056"
     id="namedview10"
     showgrid="false"
     inkscape:zoom="1.3037281"
     inkscape:cx="193.69052"
     inkscape:cy="301.01742"
     inkscape:window-x="65"
     inkscape:window-y="24"
     inkscape:window-maximized="1"
     inkscape:current-layer="g6" />
  <g
     class=""
     transform="translate(0,0)"
     style="touch-action: none;"
     id="g6">
    <path
       id="path3354"
       d="m 31.691,263.313 -0.29,35.618 c 10.746,-10.37 18.692,-21.97 24.83,-34.694 l -24.54,-0.924 z m 219.744,-2.64 -66.394,3.928 c 3.903,5.187 9.085,10.326 15.097,15.314 6.417,1.284 12.905,2.463 19.455,3.504 10.638,-7.12 21.72,-14.713 31.842,-22.746 z m 243.96,-27.852 -68.383,8.698 c 4.666,11.45 10.047,19.75 17.28,26.992 l -0.21,-9.6 c 17.455,-0.996 34.705,-3.352 51.4,-7.363 -0.065,-7.174 -0.084,-12.42 -0.087,-18.728 z M 215.592,222.487 c -1.87,2.225 -3.865,4.388 -5.947,6.504 9.277,6.192 18.952,12.242 28.38,17.815 l 17.645,10.427 c 11.34,-9.42 21.135,-19.423 27.215,-29.972 l -67.293,-4.774 z m -41.658,-20.428 c 3.27,2.968 6.883,6.035 10.845,9.124 3.52,2.743 7.266,5.524 11.14,8.308 5.44,-5.177 10.084,-10.545 13.692,-16.092 l -35.678,-1.34 z M 68.26,189.656 19.244,190.5 c -0.168,0.218 -0.32,0.44 -0.492,0.656 -0.276,21.495 -0.448,33.384 -0.502,42.38 23.342,-13.057 40.863,-28.338 50.01,-43.88 z M 108.78,121.84 C 97.973,139.008 85.742,156.88 65.467,173.7 l 26.582,-0.456 -3.53,10.697 c -8.24,24.998 -30.974,46.186 -61.625,63.185 l 52.94,1.99 -4.126,10.496 c -11.05,28.11 -29.76,52.974 -61.038,71.585 73.885,22.566 156.574,31.568 231.582,-3.572 -12.908,-7.055 -26.9,-14.653 -40.33,-23.56 -18.07,-11.983 -34.525,-25.736 -41.71,-43.713 l -4.116,-10.3 48.4,-2.864 c -11.828,-7.625 -23.415,-15.48 -33.557,-23.383 -16.245,-12.663 -29.06,-24.086 -34.02,-36.664 l -4.04,-10.247 29.74,-1.823 c -22.62,-14.476 -45.318,-30.576 -57.84,-53.23 z M 356.13,61.716 c -12.76,26.805 -36.227,46.04 -59.107,63.506 l 31.39,2.306 -3.194,9.726 c -4.503,13.7 -16.983,27.412 -32.783,42.172 -10.794,10.083 -23.245,20.29 -35.896,29.926 l 49.278,3.494 -3.26,9.78 c -11.273,33.806 -46.845,56.924 -75.816,75.597 13.487,8.056 27.67,15.44 39.813,22.318 68.34,18.82 147.594,6.972 200.924,-16 -13.19,-7.554 -23.844,-14.547 -32.748,-23.006 -11.805,-11.216 -20.072,-24.96 -26.377,-44.183 l -3.017,-9.208 51.97,-6.61 c -11.874,-8.21 -25.17,-18.39 -37.867,-29.825 -20.11,-18.113 -38.394,-38.003 -43.915,-58.067 l -2.845,-10.342 27.867,0.577 c -21.174,-20.07 -33.542,-41.485 -44.416,-62.16 z m -93.07,-0.68 c -10.808,17.168 -23.04,35.04 -43.314,51.86 l 26.582,-0.458 -3.527,10.7 c -6.657,20.188 -22.772,37.89 -44.874,52.91 l 17.916,11.573 18.273,0.688 -4.127,10.5 c -2.305,5.863 -5.355,11.4 -9.01,16.65 l 8.737,-6.19 c 17.913,-12.69 36.773,-27.495 51.8,-41.534 10.026,-9.365 17.978,-18.52 23.083,-25.914 l -50.537,-3.715 16.5,-12.773 c 10.37,-8.027 20.973,-15.94 30.924,-24.178 -15.49,-11.246 -29.53,-24.024 -38.423,-40.12 z M 84.027,34.62 C 71.507,57.276 48.807,73.377 26.184,87.854 l 29.738,1.822 -4.037,10.244 c -4.78,12.125 -16.815,24.123 -33.182,36.873 -0.295,11.21 -0.392,17.66 -0.385,17.732 0.005,0.044 0.19,1.1 0.29,3.127 0.038,0.742 0.04,3.177 0.066,4.358 l 13.828,0.797 -0.004,0.55 -3.906,9.778 c -1.18,2.955 -2.498,6.07 -4.16,9.232 l 11.525,-7.05 c 37.376,-22.87 50.42,-48.163 67.395,-74.833 l -0.233,6.366 4.474,-1.875 c -1.277,-2.702 -2.382,-5.452 -3.305,-8.25 l -3.528,-10.7 26.582,0.46 C 107.068,69.66 94.836,51.787 84.027,34.618 Z m 320.498,-5.743 c -6.537,12.962 -13.88,29.016 -23.638,44.63 10.927,18.367 24.428,35.997 46.773,52.382 l 20.42,14.97 -52.51,-1.085 c 6.956,12.136 19.936,26.858 34.58,40.047 19.157,17.254 40.928,32.572 53.907,39.914 l 11.34,6.418 c 0.005,-4.163 0.005,-7.382 0.015,-13.972 -17.176,-11.938 -29.767,-25.795 -36.322,-42.2 l -4.115,-10.298 43.605,-2.58 c -9.91,-4.358 -19.747,-8.263 -28.723,-12.06 -8.498,-3.594 -16.23,-7.107 -22.724,-11.23 -6.495,-4.122 -12.102,-8.954 -14.858,-15.943 l -3.93,-9.962 36.077,-3.178 C 440.177,84.504 417.199,55.974 404.525,28.877 Z M 169.92,15.654 c -10.512,16.697 -22.392,34.058 -41.688,50.473 0.46,0.447 0.934,0.89 1.405,1.336 l 23.55,-0.406 -3.527,10.7 c -0.505,1.53 -1.065,3.048 -1.678,4.552 2.803,1.945 5.745,3.875 8.872,5.788 l 25.052,15.33 -45.99,-0.793 c -1.954,2.474 -4.06,4.9 -6.305,7.275 8.8,11.517 22.045,22.713 38.675,32.766 l -12.404,-0.365 -0.015,5.678 c 8.53,6.358 17.792,12.448 27.162,18.48 18.11,-11.568 31.79,-24.5 39.51,-37.616 l -57.353,0.99 25.052,-15.33 c 8.97,-5.488 16.525,-11.115 23.082,-16.867 -5.098,-5.475 -9,-10.962 -11.257,-16.69 l -4.04,-10.246 29.742,-1.823 C 205.14,54.41 182.44,38.31 169.92,15.654 Z"
       style="fill:#205200;fill-opacity:1" />
    <path
       id="path8"
       style="fill:#170c00;fill-opacity:1"
       d="m 92.245,364.586 -2.508,132.56 72.692,-2.287 -7.584,-128.21 c -20.97,1.29 -41.936,0.424 -62.6,-2.062 z m 113.443,-5.628 c -11.576,2.87 -23.226,4.935 -34.898,6.284 l 3.915,66.195 33.065,0 -2.084,-72.48 z m -174.72,-6.27 -0.924,114.04 44.266,0 1.975,-104.398 c -15.362,-2.464 -30.51,-5.75 -45.318,-9.643 z m 353.38,-9.146 c -15.085,1.992 -30.582,3.05 -46.18,2.994 l -0.386,139.742 52.56,0 -5.994,-142.737 z m -120.54,-6.693 c -2.663,1.404 -5.337,2.75 -8.018,4.046 l -0.927,114.274 52.682,0 -2.426,-110.496 c -13.946,-1.552 -27.788,-4.123 -41.313,-7.824 z m 181.83,-7.002 c -14.262,4.577 -29.517,8.396 -45.38,11.222 l 5.55,132.18 42.978,0 -3.148,-143.402 z" />
  </g>
</svg>
