<?xml version="1.0" encoding="UTF-8" standalone="no"?>
<svg
   xmlns:dc="http://purl.org/dc/elements/1.1/"
   xmlns:cc="http://creativecommons.org/ns#"
   xmlns:rdf="http://www.w3.org/1999/02/22-rdf-syntax-ns#"
   xmlns:svg="http://www.w3.org/2000/svg"
   xmlns="http://www.w3.org/2000/svg"
   xmlns:sodipodi="http://sodipodi.sourceforge.net/DTD/sodipodi-0.dtd"
   xmlns:inkscape="http://www.inkscape.org/namespaces/inkscape"
   viewBox="0 0 512 512"
   style="height: 512px; width: 512px;"
   id="svg2"
   version="1.1"
   inkscape:version="0.91 r13725"
   sodipodi:docname="windmill.svg"
   inkscape:export-filename="/media/pampa/Dati/htdocs/townfactory/raw/svg/buildings/windmill.svg.png"
   inkscape:export-xdpi="90"
   inkscape:export-ydpi="90">
  <metadata
     id="metadata14">
    <rdf:RDF>
      <cc:Work
         rdf:about="">
        <dc:format>image/svg+xml</dc:format>
        <dc:type
           rdf:resource="http://purl.org/dc/dcmitype/StillImage" />
      </cc:Work>
    </rdf:RDF>
  </metadata>
  <defs
     id="defs12" />
  <sodipodi:namedview
     pagecolor="#ffffff"
     bordercolor="#666666"
     borderopacity="1"
     objecttolerance="10"
     gridtolerance="10"
     guidetolerance="10"
     inkscape:pageopacity="0"
     inkscape:pageshadow="2"
     inkscape:window-width="1855"
     inkscape:window-height="1056"
     id="namedview10"
     showgrid="false"
     inkscape:zoom="0.4609375"
     inkscape:cx="256"
     inkscape:cy="342.77966"
     inkscape:window-x="65"
     inkscape:window-y="24"
     inkscape:window-maximized="1"
     inkscape:current-layer="g6" />
  <g
     class=""
     transform="translate(0,0)"
     style="touch-action: none;"
     id="g6">
    <path
       d="m 256,174.188 c -4.975,0 -9.94,1.908 -13.78,5.75 -7.686,7.685 -7.686,19.91 0,27.594 7.683,7.686 19.877,7.686 27.56,0 7.686,-7.683 7.686,-19.908 0,-27.593 -3.84,-3.842 -8.805,-5.75 -13.78,-5.75 z"
       id="path3352" />
    <path
       id="path3344"
       d="m 281.938,218.03 -0.844,0.814 -2.375,2.406 L 350.81,365.5 409.748,345.844 281.937,218.03 Z M 228.5,216.47 84.25,288.562 103.906,347.499 231.72,219.687 230.906,218.844 228.5,216.469 Z M 408.094,40 280.28,167.813 l 0.814,0.812 2.406,2.406 L 427.75,98.907 408.094,40 Z M 161.188,22 102.25,41.656 230.063,169.47 l 0.843,-0.845 2.406,-2.406 L 161.188,22 Z"
       style="fill:#d3bc5f" />
    <path
       id="path8"
       d="M 246.188,227.844 179.656,294.374 139.094,487 216,487 l 0,-63 80,0 0,63 76.906,0 -22.03,-104.688 -1.595,0.532 -6.56,2.22 -3.126,-6.22 -75.28,-150.625 c -5.956,1.416 -12.227,1.302 -18.127,-0.376 z M 290.687,201 c -0.176,0.856 -0.353,1.72 -0.593,2.563 l 29.312,29.312 -6.72,-31.875 -21.996,0 z m -91.375,0 -2.875,13.594 25.094,-12.563 c -0.08,-0.345 -0.146,-0.682 -0.218,-1.03 l -22,0 z M 344,158.688 293.375,184 344,184 l 0,-25.313 z m -176,-28.657 0,53.969 53.906,0 c 0.006,-0.02 -0.005,-0.043 0,-0.063 L 168,130.03 Z m 88,-89.093 -53.97,26.968 45.657,91.344 c 2.727,-0.648 5.52,-0.97 8.313,-0.97 3.306,0 6.614,0.467 9.813,1.376 L 341.688,83.781 256,40.938 Z"
       style="fill:#917c6f" />
  </g>
</svg>
