<svg xmlns="http://www.w3.org/2000/svg" viewBox="0 0 512 512" style="height: 512px; width: 512px;"><circle cx="256" cy="256" r="256" fill="rgba(132, 102, 73, 0)"></circle><g class="" transform="translate(-2,-7)" style="touch-action: none;"><path fill="rgba(66, 66, 66, 1)" d="M76 16C36 36 31 46 31 46c40 160 5 275-15 375 0 0 10 25 90 45V256c0-80-30-240-30-240zm360 0s-30 160-30 240v210c80-20 90-45 90-45-20-100-55-215-15-375 0 0-5-10-45-30zM226 196c-40 0-90 15-90 15v270s50 15 90 15h60c40 0 90-15 90-15V211s-50-15-90-15h-60z" transform="translate(51.2, 51.2) scale(0.8, 0.8) rotate(0, 256, 256)"></path></g></svg>