<?xml version="1.0" encoding="UTF-8" standalone="no"?>
<svg
   xmlns:dc="http://purl.org/dc/elements/1.1/"
   xmlns:cc="http://creativecommons.org/ns#"
   xmlns:rdf="http://www.w3.org/1999/02/22-rdf-syntax-ns#"
   xmlns:svg="http://www.w3.org/2000/svg"
   xmlns="http://www.w3.org/2000/svg"
   xmlns:sodipodi="http://sodipodi.sourceforge.net/DTD/sodipodi-0.dtd"
   xmlns:inkscape="http://www.inkscape.org/namespaces/inkscape"
   viewBox="0 0 512 512"
   style="height: 512px; width: 512px;"
   id="svg2"
   version="1.1"
   inkscape:version="0.91 r13725"
   sodipodi:docname="railway.svg"
   inkscape:export-filename="/media/pampa/Dati/htdocs/townfactory/raw/svg/tools/railway.png"
   inkscape:export-xdpi="90"
   inkscape:export-ydpi="90">
  <metadata
     id="metadata14">
    <rdf:RDF>
      <cc:Work
         rdf:about="">
        <dc:format>image/svg+xml</dc:format>
        <dc:type
           rdf:resource="http://purl.org/dc/dcmitype/StillImage" />
      </cc:Work>
    </rdf:RDF>
  </metadata>
  <defs
     id="defs12" />
  <sodipodi:namedview
     pagecolor="#ffffff"
     bordercolor="#666666"
     borderopacity="1"
     objecttolerance="10"
     gridtolerance="10"
     guidetolerance="10"
     inkscape:pageopacity="0"
     inkscape:pageshadow="2"
     inkscape:window-width="1855"
     inkscape:window-height="1056"
     id="namedview10"
     showgrid="false"
     inkscape:zoom="0.4609375"
     inkscape:cx="256"
     inkscape:cy="256"
     inkscape:window-x="65"
     inkscape:window-y="24"
     inkscape:window-maximized="1"
     inkscape:current-layer="g6" />
  <g
     class=""
     transform="translate(0,0)"
     style="touch-action: none;"
     id="g6">
    <path
       id="path3352"
       d="m 18,313 0,30 476,0 0,-30 z m 0,-144 0,30 476,0 0,-30 z"
       style="fill:#4d4d4d" />
    <path
       id="path8"
       d="m 456,361 0,39 38,0 0,-39 z m -112,0 0,39 48,0 0,-39 z m -112,0 0,39 48,0 0,-39 z m -112,0 0,39 48,0 0,-39 z m -102,0 0,39 38,0 0,-39 z m 438,-144 0,78 38,0 0,-78 z m -112,0 0,78 48,0 0,-78 z m -112,0 0,78 48,0 0,-78 z m -112,0 0,78 48,0 0,-78 z m -102,0 0,78 38,0 0,-78 z m 438,-105 0,39 38,0 0,-39 z m -112,0 0,39 48,0 0,-39 z m -112,0 0,39 48,0 0,-39 z m -112,0 0,39 48,0 0,-39 z m -102,0 0,39 38,0 0,-39 z"
       style="fill:#28170b" />
  </g>
</svg>
